<?xml version="1.0" standalone="no"?>
<!DOCTYPE svg PUBLIC "-//W3C//DTD SVG 20010904//EN"
 "http://www.w3.org/TR/2001/REC-SVG-20010904/DTD/svg10.dtd">
<svg version="1.0" xmlns="http://www.w3.org/2000/svg"
 width="1600.000000pt" height="955.000000pt" viewBox="0 0 1600.000000 955.000000"
 preserveAspectRatio="xMidYMid meet">
<metadata>
Created by potrace 1.16, written by Peter Selinger 2001-2019
</metadata>
<g transform="translate(0.000000,955.000000) scale(0.100000,-0.100000)"
fill="#000000" stroke="none">
<path d="M970 6393 l1 -418 352 358 c194 197 355 357 360 357 14 0 6 -21 -27
-67 -40 -58 -56 -102 -56 -159 0 -63 21 -74 141 -74 54 0 104 -3 113 -6 14 -6
16 -111 16 -1093 l-1 -1086 -71 -75 c-83 -86 -621 -641 -813 -838 -71 -73
-131 -137 -133 -143 -2 -5 759 -9 2007 -9 l2011 0 0 415 c0 228 -4 415 -8 415
-5 0 -136 -136 -293 -302 -156 -166 -313 -333 -348 -370 -35 -38 -70 -68 -77
-68 -27 0 -13 33 41 98 31 37 60 84 66 105 11 41 3 101 -15 116 -7 6 -57 12
-112 13 l-99 3 -3 1100 -2 1100 485 515 c267 283 485 518 485 523 0 4 -904 7
-2010 7 l-2010 0 0 -417z m3033 -10 c2 -5 -41 -51 -97 -102 -55 -52 -179 -169
-275 -260 -95 -91 -182 -172 -192 -179 -18 -12 -19 -30 -19 -295 0 -249 2
-291 19 -352 52 -186 151 -364 277 -497 43 -46 54 -71 34 -83 -6 -3 -38 20
-72 52 -80 74 -665 629 -783 742 -49 48 -184 176 -300 286 -115 109 -295 280
-400 380 -104 99 -218 206 -252 239 -34 32 -60 63 -57 67 6 11 2111 12 2117 2z
m-1665 -1230 c103 -97 228 -215 277 -262 50 -47 133 -126 185 -176 53 -49 136
-128 185 -175 50 -47 252 -238 450 -425 198 -187 402 -380 453 -430 51 -49 97
-91 102 -93 6 -2 10 -10 10 -18 0 -12 -152 -14 -1060 -14 -583 0 -1060 4
-1060 8 0 7 349 342 528 507 l52 48 0 277 c0 268 -1 281 -26 366 -28 99 -105
267 -155 341 -18 26 -61 83 -96 126 -58 71 -70 97 -42 97 6 0 95 -80 197 -177z"/>
<path d="M9720 5550 l0 -100 100 0 100 0 0 100 0 100 -100 0 -100 0 0 -100z"/>
<path d="M11445 5386 c-180 -44 -276 -185 -231 -340 32 -111 123 -172 340
-229 131 -35 166 -52 192 -92 20 -30 13 -63 -20 -101 -19 -23 -33 -28 -85 -32
-36 -3 -73 1 -91 8 -40 16 -77 61 -91 111 l-12 40 -76 -6 c-203 -15 -201 -15
-201 -39 0 -28 28 -112 48 -146 51 -83 127 -131 243 -153 64 -12 70 -15 46
-22 -17 -4 -32 -18 -38 -32 -18 -49 -14 -53 54 -46 74 7 107 -6 107 -42 0 -48
-24 -58 -137 -53 l-103 4 0 -38 c0 -35 2 -38 38 -45 20 -4 82 -8 137 -8 85 0
107 4 143 23 104 55 109 172 9 224 -33 17 -38 23 -22 25 76 12 136 29 175 48
153 79 218 261 146 409 -47 96 -126 142 -336 195 -69 17 -140 38 -157 46 -64
29 -49 105 24 124 76 20 150 -16 175 -87 l13 -35 80 7 c44 3 106 6 139 6 l59
0 -6 45 c-16 114 -98 196 -232 231 -62 17 -262 17 -330 0z"/>
<path d="M6194 5375 c-2 -5 -3 -224 -2 -485 l3 -475 405 0 405 0 3 112 3 113
-258 2 -258 3 0 90 0 90 233 3 232 2 0 95 0 95 -232 2 -233 3 0 75 0 75 253 3
252 2 0 100 0 100 -401 2 c-261 2 -403 -1 -405 -7z"/>
<path d="M5152 4898 l3 -483 135 0 135 0 3 258 c1 141 6 257 11 257 4 0 24
-24 42 -52 67 -102 292 -433 307 -451 14 -15 32 -17 151 -15 l136 3 3 483 2
482 -140 0 -140 0 0 -260 c0 -143 -3 -260 -7 -260 -5 1 -87 117 -183 260
l-175 259 -143 1 -142 0 2 -482z"/>
<path d="M7150 5280 l0 -100 234 0 c129 0 237 -3 239 -7 3 -5 -114 -131 -259
-282 l-264 -273 0 -104 0 -104 458 2 457 3 3 103 3 102 -276 0 c-188 0 -275 3
-275 11 0 6 64 76 143 157 78 81 198 204 265 273 l122 126 0 97 0 96 -425 0
-425 0 0 -100z"/>
<path d="M8415 5368 c-207 -546 -352 -945 -346 -951 4 -4 72 -6 152 -5 l144 3
20 75 20 75 175 0 174 0 21 -65 c11 -36 24 -71 28 -78 6 -9 50 -12 159 -12
l150 0 -6 23 c-3 12 -84 229 -179 482 l-173 460 -167 3 c-129 2 -169 0 -172
-10z m194 -320 c12 -40 35 -113 51 -162 16 -49 27 -93 24 -98 -6 -10 -204 -11
-204 0 -1 17 96 332 102 332 3 0 16 -33 27 -72z"/>
<path d="M9672 4898 l3 -483 145 0 145 0 3 483 2 482 -150 0 -150 0 2 -482z"/>
<path d="M10090 4895 l0 -486 138 3 137 3 3 258 c1 141 6 257 10 257 4 -1 68
-91 142 -202 74 -110 154 -227 178 -259 l43 -60 137 3 137 3 3 483 2 482 -145
0 -146 0 2 -257 c0 -142 -2 -258 -5 -258 -3 0 -83 115 -178 255 l-174 255
-142 3 -142 3 0 -486z"/>
<path d="M12286 4913 c-97 -258 -178 -475 -179 -483 -2 -13 20 -15 148 -15
l149 0 24 78 23 77 173 0 172 0 25 -77 24 -78 305 0 305 0 24 78 25 77 172 0
172 0 24 -77 24 -78 152 -3 c118 -2 152 0 152 10 0 7 -79 226 -177 486 l-177
472 -166 0 -166 0 -172 -458 c-95 -252 -172 -464 -172 -470 0 -7 -6 -12 -13
-12 -7 0 -83 190 -187 470 l-175 470 -166 0 -166 0 -177 -467z m394 41 c27
-87 47 -161 44 -166 -7 -10 -191 -11 -198 0 -3 4 15 75 40 158 56 185 53 178
60 171 3 -3 28 -76 54 -163z m1054 -1 c25 -84 46 -157 46 -163 0 -12 -196 -14
-204 -2 -2 4 6 41 19 82 13 41 36 115 50 164 15 48 30 84 35 80 4 -5 28 -78
54 -161z"/>
<path d="M14140 5265 l0 -114 153 -3 152 -3 3 -368 2 -368 148 3 147 3 5 365
5 365 153 3 152 3 0 114 0 115 -460 0 -460 0 0 -115z"/>
</g>
</svg>
