<svg version="1.1" id="Layer_1" xmlns="http://www.w3.org/2000/svg" xmlns:xlink="http://www.w3.org/1999/xlink" x="0px" y="0px"
	 width="100%" viewBox="0 0 1600 955" enable-background="new 0 0 1600 955" xml:space="preserve">
<path fill="none" stroke="none" 
	d="
M938.000000,956.000000 
	C625.333313,956.000000 313.166656,956.000000 1.000000,956.000000 
	C1.000000,637.666687 1.000000,319.333344 1.000000,1.000000 
	C534.333313,1.000000 1067.666626,1.000000 1601.000000,1.000000 
	C1601.000000,319.333344 1601.000000,637.666687 1601.000000,956.000000 
	C1380.166626,956.000000 1159.333374,956.000000 938.000000,956.000000 
M415.446228,632.938354 
	C414.850586,632.648193 414.254944,632.358032 413.747955,631.344849 
	C415.206940,629.064575 416.665955,626.784363 418.672729,624.235535 
	C418.804688,623.874756 418.936676,623.513916 419.525360,622.664124 
	C421.486145,619.806335 423.446960,616.948547 425.454803,613.950317 
	C425.454803,613.950317 425.432312,613.803894 425.943451,613.182434 
	C425.724670,609.553528 425.505920,605.924683 425.182465,601.529602 
	C423.426239,600.899963 421.689392,599.802856 419.910095,599.728943 
	C414.693573,599.512329 409.460175,599.702942 403.907288,599.033813 
	C403.549652,597.013977 403.192017,594.994141 403.021423,592.056702 
	C402.993469,521.375244 402.965515,450.693756 403.231476,379.516998 
	C403.151855,379.342316 403.072266,379.167633 403.375031,378.425354 
	C404.501404,377.495850 405.738739,376.671692 406.736694,375.620331 
	C415.426025,366.465912 424.101105,357.297638 432.724884,348.081512 
	C445.990021,333.905273 459.211182,319.687866 472.238403,305.246307 
	C472.238403,305.246307 472.493561,305.442352 473.085114,305.161316 
	C482.244171,295.441895 491.403229,285.722443 501.454987,275.055695 
	C498.583252,275.055695 497.275879,275.055695 495.968506,275.055695 
	C391.302094,275.055847 286.635651,275.055084 181.969223,275.064270 
	C180.308151,275.064423 178.647064,275.186920 176.066864,275.088928 
	C171.049362,275.143433 166.031860,275.197906 160.089310,275.076385 
	C139.377792,275.076385 118.666275,275.076385 97.856010,275.076385 
	C97.856010,303.106018 97.856010,330.465118 97.856010,358.840454 
	C122.096550,334.571411 145.170868,310.446320 169.656021,287.684204 
	C169.528412,289.622986 168.383423,290.721466 167.723801,292.059235 
	C165.407150,296.757507 162.347855,301.337372 161.245773,306.331879 
	C159.325302,315.035095 162.824829,318.110535 172.729034,317.439087 
	C173.487701,317.353516 174.246384,317.267975 175.806412,317.459991 
	C177.204147,317.370026 178.601898,317.280060 180.841843,317.449677 
	C182.897537,317.503357 184.953247,317.557037 187.074158,318.469818 
	C187.120544,319.300385 187.207581,320.130981 187.207550,320.961548 
	C187.204773,391.272186 187.197723,461.582855 187.171295,531.893494 
	C187.170685,533.549316 186.947464,535.205078 186.278275,537.215088 
	C152.617661,571.925415 118.957062,606.635742 84.970055,641.682617 
	C219.706604,641.682617 353.729004,641.682617 488.045471,641.682617 
	C488.045471,624.520813 488.084381,607.716553 488.028015,590.912598 
	C488.002380,583.268250 487.788239,575.624512 487.945038,567.346558 
	C487.847839,566.904175 487.750641,566.461731 487.972870,565.180786 
	C487.972870,563.023438 487.972870,560.866028 487.972870,558.708679 
	C487.543274,558.611267 487.113708,558.513855 486.684113,558.416443 
	C478.142120,567.669189 469.600098,576.921997 460.500702,586.399414 
	C460.171875,586.892151 459.843018,587.384888 458.918854,588.073364 
	C457.261322,589.998779 455.603790,591.924255 453.309753,594.077881 
	C451.232483,596.397034 449.155212,598.716187 446.456299,601.294556 
	C443.287170,604.810364 440.118042,608.326111 436.322968,612.088257 
	C434.254730,614.397461 432.186493,616.706665 429.525879,619.322754 
	C427.866791,621.246155 426.207733,623.169617 423.936127,625.326782 
	C423.265259,626.175903 422.594391,627.024963 421.350708,628.016296 
	C420.883240,628.622620 420.415741,629.228882 419.366364,630.057617 
	C418.377106,631.091064 417.387848,632.124573 416.218903,633.000122 
	C416.218903,633.000122 416.064911,633.183167 415.446228,632.938354 
M1346.953491,432.188293 
	C1336.967285,458.794159 1326.981201,485.400024 1316.995117,512.005859 
	C1315.387695,510.946350 1315.010376,510.092529 1314.683228,509.219879 
	C1303.762817,480.084717 1292.781494,450.971985 1282.018921,421.778595 
	C1280.758667,418.360107 1279.149902,417.194641 1275.554077,417.322449 
	C1267.735718,417.600281 1259.893433,417.597107 1252.075317,417.313446 
	C1248.473267,417.182770 1246.831543,418.377960 1245.579712,421.773193 
	C1236.830078,445.501831 1227.850952,469.145782 1218.952881,492.819733 
	C1216.287964,499.909882 1213.647095,507.009094 1210.716675,514.849304 
	C1216.931641,514.849304 1222.380371,514.924255 1227.825928,514.825806 
	C1232.277832,514.745361 1237.654175,515.900696 1240.889893,513.818420 
	C1243.611450,512.067017 1243.839600,506.441101 1245.171387,502.530365 
	C1245.225098,502.372681 1245.307495,502.218140 1245.326416,502.056305 
	C1245.641846,499.352661 1247.231079,498.607330 1249.815063,498.673187 
	C1255.640869,498.821716 1261.473145,498.720856 1267.302734,498.720032 
	C1280.096558,498.718262 1280.225952,498.679321 1283.808838,510.691254 
	C1284.817017,514.071472 1286.438965,514.973267 1289.828247,514.928406 
	C1304.314941,514.736694 1318.805542,514.847839 1333.294800,514.849609 
	C1346.537598,514.851196 1346.696655,514.899048 1350.421753,502.365143 
	C1351.364136,499.194183 1352.932983,498.638855 1355.736206,498.673828 
	C1364.229492,498.779724 1372.730103,498.888245 1381.216919,498.631744 
	C1384.759155,498.524719 1386.132324,499.852448 1387.044312,503.131287 
	C1390.312378,514.881470 1390.427979,514.849304 1402.708618,514.849304 
	C1408.929565,514.849304 1415.150635,514.849304 1421.273560,514.849304 
	C1421.377563,513.689392 1421.519653,513.328430 1421.418579,513.058350 
	C1409.938721,482.370911 1398.405884,451.703156 1387.001587,420.987671 
	C1385.937744,418.122406 1384.376099,417.207123 1381.450928,417.335114 
	C1376.629883,417.545990 1371.792847,417.396057 1366.962646,417.396606 
	C1352.265625,417.398315 1352.265625,417.398010 1346.953491,432.188293 
M1038.084717,483.502594 
	C1038.084717,476.850739 1038.084717,470.198883 1038.084717,462.199493 
	C1039.573975,463.892151 1040.035889,464.316650 1040.379028,464.821869 
	C1050.763428,480.109680 1061.108887,495.423920 1071.551392,510.671906 
	C1072.622192,512.235535 1074.216309,514.525391 1075.644043,514.583069 
	C1084.561890,514.943665 1093.501465,514.765015 1102.578735,514.765015 
	C1102.578735,482.041077 1102.578735,449.993195 1102.578735,417.786804 
	C1093.047729,417.786804 1083.832153,417.786804 1074.005859,417.786804 
	C1074.005859,435.130096 1074.005859,452.091095 1074.005859,470.094849 
	C1072.735596,468.534363 1072.182861,467.948975 1071.735352,467.291901 
	C1061.239014,451.880920 1050.778687,436.445221 1040.225708,421.073181 
	C1039.259888,419.666138 1037.749146,417.669067 1036.432495,417.622742 
	C1027.673218,417.314453 1018.897888,417.462921 1009.946167,417.462921 
	C1009.946167,450.112579 1009.946167,482.175842 1009.946167,514.366699 
	C1019.414185,514.366699 1028.588867,514.366699 1038.084473,514.366699 
	C1038.084473,504.113770 1038.084473,494.307831 1038.084717,483.502594 
M544.175720,480.507111 
	C544.175720,474.828979 544.175720,469.150879 544.175720,463.472748 
	C546.194458,464.462677 547.170776,465.717468 548.063416,467.029175 
	C558.086304,481.757202 568.150024,496.458130 578.060364,511.261627 
	C579.835266,513.912842 581.782227,515.010620 585.019470,514.875122 
	C591.338623,514.610596 597.687866,514.579834 604.003235,514.890076 
	C607.917358,515.082397 609.108276,513.984680 609.082520,509.908600 
	C608.897156,480.590179 608.984863,451.270020 608.973206,421.950439 
	C608.972717,420.650848 608.847290,419.351288 608.766785,417.795044 
	C599.324341,417.795044 590.125977,417.795044 580.239868,417.795044 
	C580.239868,435.116577 580.239868,452.052521 580.239868,470.315613 
	C578.677368,468.220123 577.973816,467.347687 577.345886,466.423889 
	C567.051025,451.278381 556.792358,436.108093 546.434387,421.005859 
	C545.467163,419.595642 543.920044,417.627960 542.583740,417.580994 
	C533.822327,417.273041 525.044922,417.422363 516.106812,417.422363 
	C516.106812,450.110504 516.106812,482.185608 516.106812,514.538696 
	C525.443298,514.538696 534.522339,514.538696 544.175842,514.538696 
	C544.175842,503.410339 544.175842,492.457397 544.175720,480.507111 
M1185.669678,455.943970 
	C1181.546509,454.630768 1177.458496,453.191467 1173.292114,452.033966 
	C1167.040649,450.297180 1160.582031,449.168579 1154.530640,446.921722 
	C1152.281738,446.086700 1149.272339,442.546753 1149.578613,440.745087 
	C1149.993042,438.307770 1152.885498,435.290833 1155.385864,434.394196 
	C1163.336792,431.543060 1170.401123,435.341675 1173.494751,443.095673 
	C1173.971924,444.291901 1175.204834,446.126526 1176.034058,446.097839 
	C1184.777344,445.795135 1193.509521,445.173828 1202.203857,444.643005 
	C1201.894653,431.828705 1193.944092,421.448639 1181.770142,418.042816 
	C1168.480713,414.324951 1154.964478,414.192902 1141.800659,418.227020 
	C1130.505493,421.688446 1122.655396,429.180756 1121.289917,441.541107 
	C1119.955078,453.623871 1125.868042,462.006805 1136.285522,467.376282 
	C1140.253906,469.421692 1144.500977,471.022888 1148.763306,472.379211 
	C1155.579468,474.548279 1162.604736,476.079773 1169.366333,478.393005 
	C1173.687866,479.871460 1177.005005,482.986816 1176.405884,488.114990 
	C1175.807129,493.240997 1172.184570,495.827118 1167.406006,496.893524 
	C1157.423828,499.121094 1149.788818,494.443329 1146.753418,484.458344 
	C1146.382446,483.237762 1145.234497,481.263062 1144.510010,481.290924 
	C1135.620117,481.632690 1126.742188,482.282898 1117.444336,482.880096 
	C1120.170044,503.787659 1131.558228,514.673096 1150.696655,515.957397 
	C1149.127441,519.174683 1147.650024,522.203491 1145.671143,526.260559 
	C1149.627197,525.781616 1151.908936,525.451599 1154.201660,525.238220 
	C1160.505127,524.651489 1164.648193,526.470154 1164.171143,529.892517 
	C1163.414795,535.319153 1158.890259,535.174866 1154.884399,535.123108 
	C1149.984131,535.059875 1145.088501,534.644165 1140.231445,534.383057 
	C1139.346436,542.040894 1139.346558,542.040527 1146.433838,543.245850 
	C1146.926636,543.329651 1147.414185,543.480469 1147.909424,543.508423 
	C1156.703003,544.005859 1165.605347,545.310669 1173.728394,540.367615 
	C1182.243896,535.185730 1182.254028,524.244019 1173.771973,519.099976 
	C1172.845825,518.538330 1171.937256,517.947754 1169.627197,516.493286 
	C1172.637817,516.076233 1174.174438,515.890869 1175.701904,515.647583 
	C1192.045288,513.044312 1203.400879,502.350403 1205.473389,487.623352 
	C1207.484985,473.327820 1201.307129,463.182220 1185.669678,455.943970 
M668.500183,473.409851 
	C677.943665,473.409851 687.387085,473.409851 696.879700,473.409851 
	C696.879700,466.452484 696.879700,460.083893 696.879700,453.346008 
	C681.374695,453.346008 666.270264,453.346008 650.854736,453.346008 
	C650.854736,448.278198 650.854736,443.595245 650.854736,438.575104 
	C652.881226,438.575104 654.522766,438.575287 656.164246,438.575073 
	C669.493042,438.573181 682.823303,438.459320 696.149536,438.643646 
	C699.731689,438.693176 701.371826,437.922821 701.040161,433.977173 
	C700.706360,430.006805 700.697021,425.961792 701.050476,421.994446 
	C701.401794,418.051208 699.786682,417.293701 696.202698,417.314270 
	C672.211731,417.452087 648.219543,417.382019 624.227783,417.407288 
	C622.970947,417.408630 621.714355,417.664001 620.588806,417.786804 
	C620.588806,450.296631 620.588806,482.355530 620.588806,514.549927 
	C647.910828,514.549927 674.829224,514.549927 701.933594,514.549927 
	C701.933594,506.920380 701.933594,499.567627 701.933594,491.660706 
	C684.636108,491.660706 667.757019,491.660706 650.805420,491.660706 
	C650.805420,485.355621 650.805420,479.618195 650.805420,473.409668 
	C656.587280,473.409668 662.043701,473.409668 668.500183,473.409851 
M740.500000,514.817139 
	C761.230774,514.817139 781.961487,514.817139 803.063416,514.817139 
	C803.063416,509.312073 802.721130,504.639282 803.156677,500.040131 
	C803.622559,495.120331 802.355225,493.442474 797.010925,493.592743 
	C781.859680,494.018738 766.688782,493.756226 751.525696,493.729340 
	C750.360291,493.727295 749.195435,493.447144 747.319275,493.204132 
	C748.569641,491.831360 749.198547,491.106812 749.862976,490.416473 
	C765.806152,473.850891 781.762878,457.298370 797.680725,440.708466 
	C798.925781,439.410858 800.769958,437.907410 800.855896,436.414459 
	C801.214294,430.187042 801.006775,423.927063 801.006775,417.860596 
	C772.182251,417.860596 744.139832,417.860596 716.158630,417.860596 
	C716.158630,424.927277 716.158630,431.510925 716.158630,438.729370 
	C731.988586,438.729370 747.490479,438.729370 763.993896,438.729370 
	C762.508362,440.420410 761.818298,441.270508 761.062073,442.057159 
	C745.128540,458.631134 729.173218,475.184387 713.278748,491.795807 
	C712.186401,492.937408 710.860352,494.472473 710.797913,495.875977 
	C710.525818,501.993195 710.680908,508.129456 710.680908,514.817078 
	C720.607727,514.817078 730.053833,514.817078 740.500000,514.817139 
M842.274902,419.555573 
	C830.450439,451.073486 818.626038,482.591431 806.539185,514.808777 
	C813.380493,514.808777 819.336365,514.808777 825.292175,514.808716 
	C837.118652,514.808655 837.118408,514.808655 840.718628,503.341797 
	C840.818176,503.024597 841.002930,502.722595 841.044006,502.400299 
	C841.402588,499.582977 842.914795,498.606903 845.792542,498.660156 
	C854.611328,498.823456 863.437683,498.839233 872.255493,498.649414 
	C875.366150,498.582428 876.591248,499.838867 877.453369,502.660889 
	C881.171875,514.833435 881.251465,514.808777 893.808167,514.807007 
	C899.848328,514.806091 905.888489,514.806824 911.645325,514.806824 
	C911.941956,513.778076 912.065186,513.594177 912.019958,513.473022 
	C900.457581,482.481659 888.926697,451.478271 877.173401,420.559387 
	C876.626953,419.121979 874.119080,417.605438 872.475098,417.548035 
	C863.830139,417.246368 855.168396,417.342102 846.514771,417.464355 
	C845.210205,417.482758 843.917908,418.366119 842.274902,419.555573 
M1439.500122,417.392670 
	C1431.560181,417.392670 1423.620239,417.392670 1415.211792,417.392670 
	C1415.211792,424.172760 1415.475830,430.313416 1415.121216,436.418121 
	C1414.874878,440.655731 1416.295288,441.820526 1420.437500,441.660309 
	C1428.699341,441.340729 1436.982178,441.565613 1445.795898,441.565613 
	C1445.795898,466.247070 1445.795898,490.310211 1445.795898,514.517578 
	C1456.074585,514.517578 1465.795532,514.517578 1476.091309,514.517578 
	C1476.091309,490.130768 1476.091309,466.081421 1476.091309,441.433533 
	C1486.568604,441.433533 1496.482056,441.433533 1506.549316,441.433533 
	C1506.549316,433.236359 1506.549316,425.649231 1506.549316,417.392822 
	C1484.378174,417.392822 1462.439209,417.392822 1439.500122,417.392670 
M993.138550,417.412689 
	C984.866333,417.412689 976.594116,417.412689 968.099121,417.412689 
	C968.099121,450.078308 968.099121,482.131989 968.099121,514.505188 
	C978.084534,514.505188 987.820190,514.505188 997.674072,514.505188 
	C997.856262,513.747131 998.139526,513.117554 998.139954,512.487793 
	C998.162781,481.850250 998.118835,451.212555 998.221436,420.575378 
	C998.232910,417.146820 996.302979,417.306244 993.138550,417.412689 
M975.179626,411.483398 
	C981.113037,411.483398 987.046387,411.483398 993.140381,411.483398 
	C993.140381,404.243652 993.140381,397.587036 993.140381,391.064636 
	C986.087952,391.064636 979.511536,391.064636 972.587280,391.064636 
	C972.587280,397.216034 972.514587,403.011414 972.664490,408.800964 
	C972.687317,409.684418 973.740173,410.541168 975.179626,411.483398 
z"/>
<path fill="#5F6574" opacity="1.000000" stroke="none" 
	d="
M402.834381,592.974304 
	C403.192017,594.994141 403.549652,597.013977 403.742188,599.527588 
	C402.557587,599.711426 401.538025,599.401489 400.445068,598.730469 
	C385.787506,584.495728 371.231567,570.592163 356.613892,556.753906 
	C310.677643,513.266846 264.721985,469.800323 218.745758,426.355652 
	C217.577576,425.251770 216.084213,424.492065 214.742508,423.571869 
	C214.365753,423.952576 213.989014,424.333282 213.612259,424.713959 
	C214.455627,425.917267 215.259583,427.150604 216.148911,428.318909 
	C221.180771,434.929657 226.858429,441.143982 231.155304,448.200226 
	C241.852448,465.766907 249.227280,484.412170 248.084946,505.656647 
	C247.495758,516.614136 247.822952,527.631958 248.051483,538.615967 
	C248.125076,542.152771 246.858017,544.491943 244.389786,546.808044 
	C226.910004,563.210327 209.513458,579.701416 192.152390,596.229370 
	C191.216095,597.120728 190.837555,598.597961 189.935425,599.984192 
	C189.466217,600.225281 189.260956,600.284607 188.843018,600.216675 
	C188.630341,600.089355 188.162308,599.926147 188.143524,599.589783 
	C188.029678,597.853027 187.934586,596.452637 187.895538,594.583374 
	C187.911453,576.750854 187.871338,559.387146 187.902863,541.668579 
	C187.592361,539.829407 187.210220,538.345093 186.828079,536.860840 
	C186.947464,535.205078 187.170685,533.549316 187.171295,531.893494 
	C187.197723,461.582855 187.204773,391.272186 187.207550,320.961548 
	C187.207581,320.130981 187.120544,319.300385 186.962769,317.861847 
	C186.851364,317.253876 186.976913,316.885345 187.229889,316.947754 
	C187.656418,317.002686 187.829956,316.995270 188.399246,317.016174 
	C189.309280,317.144318 189.823563,317.244232 190.265915,317.658264 
	C190.740829,318.743744 191.287643,319.515045 192.001373,320.573547 
	C197.205750,325.660950 202.236832,330.467865 207.281616,335.260376 
	C261.884766,387.133148 316.488037,439.005798 371.107574,490.861328 
	C372.352814,492.043640 373.788422,493.025421 375.135223,494.100739 
	C375.579803,493.773163 376.024384,493.445618 376.468964,493.118042 
	C375.778137,491.753265 375.301453,490.213593 374.356323,489.056519 
	C371.513733,485.576630 368.236450,482.431793 365.576538,478.825928 
	C350.937073,458.980286 340.548859,437.640350 341.975433,412.032654 
	C342.438202,403.725189 342.710663,395.303009 341.874603,387.054504 
	C340.904999,377.488617 344.399292,371.074219 351.478912,364.784973 
	C367.402100,350.639404 382.519409,335.586639 398.276276,320.798218 
	C399.502136,320.131561 400.416443,319.569794 401.597717,319.244812 
	C402.230042,321.650970 402.595398,323.820312 402.704956,326.311829 
	C402.349518,338.348022 402.214844,350.062012 402.188324,361.776245 
	C402.184357,363.521759 402.689026,365.268372 402.928589,367.384674 
	C402.912994,368.497040 402.927185,369.239258 402.695007,370.283020 
	C402.629913,373.387390 402.811279,376.190155 402.992645,378.992920 
	C403.072266,379.167633 403.151855,379.342316 402.694397,379.862823 
	C401.771057,381.549408 401.047974,382.889923 401.046906,384.230988 
	C400.992249,452.480377 400.988708,520.729797 401.075867,588.979126 
	C401.077576,590.311584 402.222717,591.642639 402.834381,592.974304 
M189.001831,398.500000 
	C189.001831,443.934692 189.001831,489.369415 189.001831,534.804138 
	C189.230652,534.802979 189.459488,534.801819 189.688309,534.800659 
	C189.688309,463.926239 189.688309,393.051819 189.688309,322.177399 
	C189.459488,322.177063 189.230652,322.176727 189.001831,322.176392 
	C189.001831,347.284271 189.001831,372.392120 189.001831,398.500000 
z"/>
<path fill="#021746" opacity="1.000000" stroke="none" 
	d="
M187.831207,542.023499 
	C187.871338,559.387146 187.911453,576.750854 187.601196,594.755249 
	C185.710663,597.277100 184.814285,599.028625 188.162308,599.926147 
	C188.162308,599.926147 188.630341,600.089355 188.954544,600.578003 
	C191.166519,601.379456 193.054123,601.964417 194.942093,601.965637 
	C267.269135,602.012024 339.596222,601.973389 411.923218,602.035278 
	C424.248505,602.045837 424.123810,599.525452 423.670776,614.180237 
	C422.856140,615.591858 422.348694,616.840942 421.641724,618.185913 
	C421.206726,618.483582 421.059509,618.736816 420.893982,619.249939 
	C420.594910,619.718018 420.345184,619.898560 419.804443,620.104065 
	C419.381561,620.485413 419.192505,620.762695 418.970673,621.317627 
	C418.909454,621.779541 418.881012,621.963745 418.605682,622.358643 
	C418.280853,623.214233 418.202881,623.859192 418.124939,624.504089 
	C416.665955,626.784363 415.206940,629.064575 413.507751,631.705566 
	C413.267578,632.066223 412.881378,632.132080 412.727356,632.196533 
	C412.702576,632.495911 412.831848,632.730713 413.080383,633.194397 
	C413.474579,633.622803 413.749542,633.822388 414.054626,634.315430 
	C414.394409,634.929260 414.704071,635.249573 415.013733,635.569885 
	C415.324036,635.075806 415.634308,634.581726 415.979858,633.862183 
	C416.015137,633.636780 416.064911,633.183167 416.064911,633.183167 
	C416.064911,633.183167 416.218903,633.000122 416.676453,633.039185 
	C418.072052,631.997192 419.010162,630.916199 419.948242,629.835205 
	C420.415741,629.228882 420.883240,628.622620 421.880066,628.238708 
	C426.169281,629.273499 424.728577,626.782898 424.548645,625.093018 
	C426.207733,623.169617 427.866791,621.246155 430.167480,619.130676 
	C433.131622,616.811768 437.306396,616.287415 436.948883,611.841919 
	C440.118042,608.326111 443.287170,604.810364 447.131836,601.157715 
	C451.297791,599.866760 453.988922,598.028381 453.946228,593.849731 
	C455.603790,591.924255 457.261322,589.998779 459.573120,587.986084 
	C460.830078,587.599182 461.432739,587.299622 462.377869,586.959106 
	C468.795013,580.782349 475.182800,574.915100 480.789307,568.377747 
	C483.014160,565.783508 484.775208,565.121338 487.653442,566.019348 
	C487.750641,566.461731 487.847839,566.904175 487.409088,567.691040 
	C486.251953,569.687988 485.099731,571.337219 485.090088,572.993225 
	C484.968018,593.982666 484.923340,614.973816 485.089386,635.962708 
	C485.119934,639.823242 484.130188,641.089233 480.081573,641.085938 
	C351.974792,640.981445 223.867950,641.000366 95.761116,640.980103 
	C94.228241,640.979858 92.695412,640.712158 89.906487,640.452271 
	C91.845505,638.106628 92.864929,636.683533 94.072708,635.443909 
	C100.664886,628.678223 107.321457,621.975220 113.921112,615.216675 
	C121.412727,607.544800 128.832260,599.802185 136.348053,592.154114 
	C144.696396,583.658936 153.225037,575.338562 161.474701,566.749512 
	C168.394745,559.544739 174.922821,551.962708 181.871979,544.787476 
	C183.293823,543.319397 185.816147,542.917053 187.831207,542.023499 
M458.480469,591.590515 
	C458.480469,591.590515 458.409637,591.473145 458.480469,591.590515 
M446.483063,603.597107 
	C446.483063,603.597107 446.409424,603.476501 446.483063,603.597107 
z"/>
<path fill="#031846" opacity="1.000000" stroke="none" 
	d="
M402.941406,369.981445 
	C402.927185,369.239258 402.912994,368.497040 403.234222,367.094849 
	C403.690216,353.506958 403.822968,340.579132 403.889618,327.650970 
	C403.892487,327.098816 403.284271,326.543518 402.960754,325.989685 
	C402.595398,323.820312 402.230042,321.650970 401.577271,318.933777 
	C400.849243,317.962402 400.408661,317.538910 399.756165,316.820221 
	C398.019135,316.741608 396.494019,316.958160 394.584656,317.302704 
	C393.134857,317.347229 392.069336,317.263824 390.926086,316.770630 
	C389.047241,315.911285 387.246887,315.073364 385.444794,315.069550 
	C349.331360,314.992828 313.217743,315.012207 277.104156,315.012207 
	C251.475159,315.012207 225.845917,314.969940 200.217636,315.104431 
	C198.452820,315.113647 196.694916,316.442413 194.566315,317.280304 
	C192.911835,317.383453 191.624832,317.363800 190.337830,317.344147 
	C189.823563,317.244232 189.309280,317.144318 188.315887,316.852631 
	C187.550156,316.735657 187.263535,316.810516 186.976913,316.885345 
	C186.976913,316.885345 186.851364,317.253876 186.930145,317.432312 
	C184.953247,317.557037 182.897537,317.503357 180.363785,316.942139 
	C177.920807,314.477814 176.158386,313.842499 175.005051,317.182434 
	C174.246384,317.267975 173.487701,317.353516 172.304291,316.926636 
	C170.930099,315.938721 170.015900,315.153748 169.025177,315.040955 
	C164.560959,314.532745 162.093430,312.108002 163.073837,307.723236 
	C163.958878,303.764984 165.551178,299.878113 167.402466,296.251160 
	C168.783447,293.545624 171.074585,291.304657 173.072021,288.711914 
	C171.539917,287.422363 170.313019,286.389740 168.046448,284.482025 
	C145.696030,307.105347 123.469673,329.603088 100.518997,352.833984 
	C100.191978,350.637878 100.013748,349.997589 100.013268,349.357208 
	C99.996178,326.553528 100.062103,303.749481 99.924706,280.946594 
	C99.902939,277.333618 101.571548,276.941376 104.498222,276.955688 
	C121.642189,277.039429 138.787140,277.044556 155.930603,276.918945 
	C157.629166,276.906555 159.319962,275.833282 161.014359,275.252380 
	C166.031860,275.197906 171.049362,275.143433 176.644348,275.546387 
	C179.266251,276.334259 181.310516,276.952850 183.355072,276.953796 
	C285.076050,277.001007 386.797058,276.995300 488.518066,276.995392 
	C490.546509,276.995392 492.574951,276.995392 495.978821,276.995392 
	C493.692200,279.784088 492.550079,281.377777 491.207397,282.779266 
	C485.709778,288.517639 480.045410,294.101166 474.693542,299.970642 
	C473.452545,301.331635 473.200623,303.594482 472.493591,305.442352 
	C472.493561,305.442352 472.238403,305.246307 471.976624,305.250061 
	C470.455139,305.915100 468.908386,306.303711 467.980652,307.280365 
	C459.893799,315.793732 451.950623,324.443329 443.901245,332.992584 
	C431.425873,346.242676 418.900482,359.445679 406.251099,372.822144 
	C405.110107,371.842834 404.025757,370.912140 402.941406,369.981445 
z"/>
<path fill="#081D4A" opacity="1.000000" stroke="none" 
	d="
M1347.109131,431.830750 
	C1352.265625,417.398010 1352.265625,417.398315 1366.962646,417.396606 
	C1371.792847,417.396057 1376.629883,417.545990 1381.450928,417.335114 
	C1384.376099,417.207123 1385.937744,418.122406 1387.001587,420.987671 
	C1398.405884,451.703156 1409.938721,482.370911 1421.418579,513.058350 
	C1421.519653,513.328430 1421.377563,513.689392 1421.273560,514.849304 
	C1415.150635,514.849304 1408.929565,514.849304 1402.708618,514.849304 
	C1390.427979,514.849304 1390.312378,514.881470 1387.044312,503.131287 
	C1386.132324,499.852448 1384.759155,498.524719 1381.216919,498.631744 
	C1372.730103,498.888245 1364.229492,498.779724 1355.736206,498.673828 
	C1352.932983,498.638855 1351.364136,499.194183 1350.421753,502.365143 
	C1346.696655,514.899048 1346.537598,514.851196 1333.294800,514.849609 
	C1318.805542,514.847839 1304.314941,514.736694 1289.828247,514.928406 
	C1286.438965,514.973267 1284.817017,514.071472 1283.808838,510.691254 
	C1280.225952,498.679321 1280.096558,498.718262 1267.302734,498.720032 
	C1261.473145,498.720856 1255.640869,498.821716 1249.815063,498.673187 
	C1247.231079,498.607330 1245.641846,499.352661 1245.326416,502.056305 
	C1245.307495,502.218140 1245.225098,502.372681 1245.171387,502.530365 
	C1243.839600,506.441101 1243.611450,512.067017 1240.889893,513.818420 
	C1237.654175,515.900696 1232.277832,514.745361 1227.825928,514.825806 
	C1222.380371,514.924255 1216.931641,514.849304 1210.716675,514.849304 
	C1213.647095,507.009094 1216.287964,499.909882 1218.952881,492.819733 
	C1227.850952,469.145782 1236.830078,445.501831 1245.579712,421.773193 
	C1246.831543,418.377960 1248.473267,417.182770 1252.075317,417.313446 
	C1259.893433,417.597107 1267.735718,417.600281 1275.554077,417.322449 
	C1279.149902,417.194641 1280.758667,418.360107 1282.018921,421.778595 
	C1292.781494,450.971985 1303.762817,480.084717 1314.683228,509.219879 
	C1315.010376,510.092529 1315.387695,510.946350 1316.995117,512.005859 
	C1326.981201,485.400024 1336.967285,458.794159 1347.109131,431.830750 
M1361.072021,467.440338 
	C1360.137573,470.570496 1359.203003,473.700653 1358.165283,477.176575 
	C1365.396729,477.176575 1372.140747,477.176575 1379.342163,477.176575 
	C1375.833496,465.799500 1372.510620,455.024841 1369.187744,444.250183 
	C1368.817993,444.298309 1368.448120,444.346436 1368.078369,444.394592 
	C1365.814819,451.819397 1363.551270,459.244232 1361.072021,467.440338 
M1270.897949,477.685303 
	C1274.082397,477.885345 1273.903320,476.342163 1273.128296,473.947174 
	C1270.463257,465.711670 1267.997559,457.411774 1265.440430,449.141205 
	C1264.943237,447.533386 1264.377441,445.946838 1263.843262,444.350464 
	C1263.476807,444.392334 1263.110352,444.434235 1262.743896,444.476105 
	C1259.485840,455.320404 1256.227661,466.164673 1252.766479,477.684692 
	C1259.090088,477.684692 1264.552124,477.684692 1270.897949,477.685303 
z"/>
<path fill="#081D4A" opacity="1.000000" stroke="none" 
	d="
M1038.084595,484.002258 
	C1038.084473,494.307831 1038.084473,504.113770 1038.084473,514.366699 
	C1028.588867,514.366699 1019.414185,514.366699 1009.946167,514.366699 
	C1009.946167,482.175842 1009.946167,450.112579 1009.946167,417.462921 
	C1018.897888,417.462921 1027.673218,417.314453 1036.432495,417.622742 
	C1037.749146,417.669067 1039.259888,419.666138 1040.225708,421.073181 
	C1050.778687,436.445221 1061.239014,451.880920 1071.735352,467.291901 
	C1072.182861,467.948975 1072.735596,468.534363 1074.005859,470.094849 
	C1074.005859,452.091095 1074.005859,435.130096 1074.005859,417.786804 
	C1083.832153,417.786804 1093.047729,417.786804 1102.578735,417.786804 
	C1102.578735,449.993195 1102.578735,482.041077 1102.578735,514.765015 
	C1093.501465,514.765015 1084.561890,514.943665 1075.644043,514.583069 
	C1074.216309,514.525391 1072.622192,512.235535 1071.551392,510.671906 
	C1061.108887,495.423920 1050.763428,480.109680 1040.379028,464.821869 
	C1040.035889,464.316650 1039.573975,463.892151 1038.084717,462.199493 
	C1038.084717,470.198883 1038.084717,476.850739 1038.084595,484.002258 
z"/>
<path fill="#071C49" opacity="1.000000" stroke="none" 
	d="
M544.175781,481.005798 
	C544.175842,492.457397 544.175842,503.410339 544.175842,514.538696 
	C534.522339,514.538696 525.443298,514.538696 516.106812,514.538696 
	C516.106812,482.185608 516.106812,450.110504 516.106812,417.422363 
	C525.044922,417.422363 533.822327,417.273041 542.583740,417.580994 
	C543.920044,417.627960 545.467163,419.595642 546.434387,421.005859 
	C556.792358,436.108093 567.051025,451.278381 577.345886,466.423889 
	C577.973816,467.347687 578.677368,468.220123 580.239868,470.315613 
	C580.239868,452.052521 580.239868,435.116577 580.239868,417.795044 
	C590.125977,417.795044 599.324341,417.795044 608.766785,417.795044 
	C608.847290,419.351288 608.972717,420.650848 608.973206,421.950439 
	C608.984863,451.270020 608.897156,480.590179 609.082520,509.908600 
	C609.108276,513.984680 607.917358,515.082397 604.003235,514.890076 
	C597.687866,514.579834 591.338623,514.610596 585.019470,514.875122 
	C581.782227,515.010620 579.835266,513.912842 578.060364,511.261627 
	C568.150024,496.458130 558.086304,481.757202 548.063416,467.029175 
	C547.170776,465.717468 546.194458,464.462677 544.175720,463.472748 
	C544.175720,469.150879 544.175720,474.828979 544.175781,481.005798 
z"/>
<path fill="#091E4A" opacity="1.000000" stroke="none" 
	d="
M1186.017334,456.093628 
	C1201.307129,463.182220 1207.484985,473.327820 1205.473389,487.623352 
	C1203.400879,502.350403 1192.045288,513.044312 1175.701904,515.647583 
	C1174.174438,515.890869 1172.637817,516.076233 1169.627197,516.493286 
	C1171.937256,517.947754 1172.845825,518.538330 1173.771973,519.099976 
	C1182.254028,524.244019 1182.243896,535.185730 1173.728394,540.367615 
	C1165.605347,545.310669 1156.703003,544.005859 1147.909424,543.508423 
	C1147.414185,543.480469 1146.926636,543.329651 1146.433838,543.245850 
	C1139.346558,542.040527 1139.346436,542.040894 1140.231445,534.383057 
	C1145.088501,534.644165 1149.984131,535.059875 1154.884399,535.123108 
	C1158.890259,535.174866 1163.414795,535.319153 1164.171143,529.892517 
	C1164.648193,526.470154 1160.505127,524.651489 1154.201660,525.238220 
	C1151.908936,525.451599 1149.627197,525.781616 1145.671143,526.260559 
	C1147.650024,522.203491 1149.127441,519.174683 1150.696655,515.957397 
	C1131.558228,514.673096 1120.170044,503.787659 1117.444336,482.880096 
	C1126.742188,482.282898 1135.620117,481.632690 1144.510010,481.290924 
	C1145.234497,481.263062 1146.382446,483.237762 1146.753418,484.458344 
	C1149.788818,494.443329 1157.423828,499.121094 1167.406006,496.893524 
	C1172.184570,495.827118 1175.807129,493.240997 1176.405884,488.114990 
	C1177.005005,482.986816 1173.687866,479.871460 1169.366333,478.393005 
	C1162.604736,476.079773 1155.579468,474.548279 1148.763306,472.379211 
	C1144.500977,471.022888 1140.253906,469.421692 1136.285522,467.376282 
	C1125.868042,462.006805 1119.955078,453.623871 1121.289917,441.541107 
	C1122.655396,429.180756 1130.505493,421.688446 1141.800659,418.227020 
	C1154.964478,414.192902 1168.480713,414.324951 1181.770142,418.042816 
	C1193.944092,421.448639 1201.894653,431.828705 1202.203857,444.643005 
	C1193.509521,445.173828 1184.777344,445.795135 1176.034058,446.097839 
	C1175.204834,446.126526 1173.971924,444.291901 1173.494751,443.095673 
	C1170.401123,435.341675 1163.336792,431.543060 1155.385864,434.394196 
	C1152.885498,435.290833 1149.993042,438.307770 1149.578613,440.745087 
	C1149.272339,442.546753 1152.281738,446.086700 1154.530640,446.921722 
	C1160.582031,449.168579 1167.040649,450.297180 1173.292114,452.033966 
	C1177.458496,453.191467 1181.546509,454.630768 1186.017334,456.093628 
z"/>
<path fill="#091E4B" opacity="1.000000" stroke="none" 
	d="
M668.000122,473.409760 
	C662.043701,473.409668 656.587280,473.409668 650.805420,473.409668 
	C650.805420,479.618195 650.805420,485.355621 650.805420,491.660706 
	C667.757019,491.660706 684.636108,491.660706 701.933594,491.660706 
	C701.933594,499.567627 701.933594,506.920380 701.933594,514.549927 
	C674.829224,514.549927 647.910828,514.549927 620.588806,514.549927 
	C620.588806,482.355530 620.588806,450.296631 620.588806,417.786804 
	C621.714355,417.664001 622.970947,417.408630 624.227783,417.407288 
	C648.219543,417.382019 672.211731,417.452087 696.202698,417.314270 
	C699.786682,417.293701 701.401794,418.051208 701.050476,421.994446 
	C700.697021,425.961792 700.706360,430.006805 701.040161,433.977173 
	C701.371826,437.922821 699.731689,438.693176 696.149536,438.643646 
	C682.823303,438.459320 669.493042,438.573181 656.164246,438.575073 
	C654.522766,438.575287 652.881226,438.575104 650.854736,438.575104 
	C650.854736,443.595245 650.854736,448.278198 650.854736,453.346008 
	C666.270264,453.346008 681.374695,453.346008 696.879700,453.346008 
	C696.879700,460.083893 696.879700,466.452484 696.879700,473.409851 
	C687.387085,473.409851 677.943665,473.409851 668.000122,473.409760 
z"/>
<path fill="#0A1F4B" opacity="1.000000" stroke="none" 
	d="
M740.000000,514.817139 
	C730.053833,514.817078 720.607727,514.817078 710.680908,514.817078 
	C710.680908,508.129456 710.525818,501.993195 710.797913,495.875977 
	C710.860352,494.472473 712.186401,492.937408 713.278748,491.795807 
	C729.173218,475.184387 745.128540,458.631134 761.062073,442.057159 
	C761.818298,441.270508 762.508362,440.420410 763.993896,438.729370 
	C747.490479,438.729370 731.988586,438.729370 716.158630,438.729370 
	C716.158630,431.510925 716.158630,424.927277 716.158630,417.860596 
	C744.139832,417.860596 772.182251,417.860596 801.006775,417.860596 
	C801.006775,423.927063 801.214294,430.187042 800.855896,436.414459 
	C800.769958,437.907410 798.925781,439.410858 797.680725,440.708466 
	C781.762878,457.298370 765.806152,473.850891 749.862976,490.416473 
	C749.198547,491.106812 748.569641,491.831360 747.319275,493.204132 
	C749.195435,493.447144 750.360291,493.727295 751.525696,493.729340 
	C766.688782,493.756226 781.859680,494.018738 797.010925,493.592743 
	C802.355225,493.442474 803.622559,495.120331 803.156677,500.040131 
	C802.721130,504.639282 803.063416,509.312073 803.063416,514.817139 
	C781.961487,514.817139 761.230774,514.817139 740.000000,514.817139 
z"/>
<path fill="#081D4A" opacity="1.000000" stroke="none" 
	d="
M842.447388,419.202454 
	C843.917908,418.366119 845.210205,417.482758 846.514771,417.464355 
	C855.168396,417.342102 863.830139,417.246368 872.475098,417.548035 
	C874.119080,417.605438 876.626953,419.121979 877.173401,420.559387 
	C888.926697,451.478271 900.457581,482.481659 912.019958,513.473022 
	C912.065186,513.594177 911.941956,513.778076 911.645325,514.806824 
	C905.888489,514.806824 899.848328,514.806091 893.808167,514.807007 
	C881.251465,514.808777 881.171875,514.833435 877.453369,502.660889 
	C876.591248,499.838867 875.366150,498.582428 872.255493,498.649414 
	C863.437683,498.839233 854.611328,498.823456 845.792542,498.660156 
	C842.914795,498.606903 841.402588,499.582977 841.044006,502.400299 
	C841.002930,502.722595 840.818176,503.024597 840.718628,503.341797 
	C837.118408,514.808655 837.118652,514.808655 825.292175,514.808716 
	C819.336365,514.808777 813.380493,514.808777 806.539185,514.808777 
	C818.626038,482.591431 830.450439,451.073486 842.447388,419.202454 
M869.280090,474.984741 
	C866.088318,464.748291 862.896545,454.511841 859.704834,444.275391 
	C856.900818,449.973572 855.297058,455.357147 853.686768,460.738770 
	C852.055481,466.190277 850.417725,471.639893 848.607422,477.674988 
	C854.658142,477.674988 859.773987,477.675293 864.889771,477.674713 
	C865.718994,477.674591 866.660767,477.917664 867.348572,477.604614 
	C868.187622,477.222748 868.813293,476.372101 869.280090,474.984741 
z"/>
<path fill="#091E4B" opacity="1.000000" stroke="none" 
	d="
M1440.000244,417.392761 
	C1462.439209,417.392822 1484.378174,417.392822 1506.549316,417.392822 
	C1506.549316,425.649231 1506.549316,433.236359 1506.549316,441.433533 
	C1496.482056,441.433533 1486.568604,441.433533 1476.091309,441.433533 
	C1476.091309,466.081421 1476.091309,490.130768 1476.091309,514.517578 
	C1465.795532,514.517578 1456.074585,514.517578 1445.795898,514.517578 
	C1445.795898,490.310211 1445.795898,466.247070 1445.795898,441.565613 
	C1436.982178,441.565613 1428.699341,441.340729 1420.437500,441.660309 
	C1416.295288,441.820526 1414.874878,440.655731 1415.121216,436.418121 
	C1415.475830,430.313416 1415.211792,424.172760 1415.211792,417.392670 
	C1423.620239,417.392670 1431.560181,417.392670 1440.000244,417.392761 
z"/>
<path fill="#081D4A" opacity="1.000000" stroke="none" 
	d="
M993.589478,417.408752 
	C996.302979,417.306244 998.232910,417.146820 998.221436,420.575378 
	C998.118835,451.212555 998.162781,481.850250 998.139954,512.487793 
	C998.139526,513.117554 997.856262,513.747131 997.674072,514.505188 
	C987.820190,514.505188 978.084534,514.505188 968.099121,514.505188 
	C968.099121,482.131989 968.099121,450.078308 968.099121,417.412689 
	C976.594116,417.412689 984.866333,417.412689 993.589478,417.408752 
z"/>
<path fill="#141D3C" opacity="1.000000" stroke="none" 
	d="
M187.902863,541.668579 
	C185.816147,542.917053 183.293823,543.319397 181.871979,544.787476 
	C174.922821,551.962708 168.394745,559.544739 161.474701,566.749512 
	C153.225037,575.338562 144.696396,583.658936 136.348053,592.154114 
	C128.832260,599.802185 121.412727,607.544800 113.921112,615.216675 
	C107.321457,621.975220 100.664886,628.678223 94.072708,635.443909 
	C92.864929,636.683533 91.845505,638.106628 89.906487,640.452271 
	C92.695412,640.712158 94.228241,640.979858 95.761116,640.980103 
	C223.867950,641.000366 351.974792,640.981445 480.081573,641.085938 
	C484.130188,641.089233 485.119934,639.823242 485.089386,635.962708 
	C484.923340,614.973816 484.968018,593.982666 485.090088,572.993225 
	C485.099731,571.337219 486.251953,569.687988 487.266388,568.008057 
	C487.788239,575.624512 488.002380,583.268250 488.028015,590.912598 
	C488.084381,607.716553 488.045471,624.520813 488.045471,641.682617 
	C353.729004,641.682617 219.706604,641.682617 84.970055,641.682617 
	C118.957062,606.635742 152.617661,571.925415 186.553177,537.037964 
	C187.210220,538.345093 187.592361,539.829407 187.902863,541.668579 
z"/>
<path fill="#141D3C" opacity="1.000000" stroke="none" 
	d="
M472.789368,305.301819 
	C473.200623,303.594482 473.452545,301.331635 474.693542,299.970642 
	C480.045410,294.101166 485.709778,288.517639 491.207397,282.779266 
	C492.550079,281.377777 493.692200,279.784088 495.978821,276.995392 
	C492.574951,276.995392 490.546509,276.995392 488.518066,276.995392 
	C386.797058,276.995300 285.076050,277.001007 183.355072,276.953796 
	C181.310516,276.952850 179.266251,276.334259 177.103912,275.628082 
	C178.647064,275.186920 180.308151,275.064423 181.969223,275.064270 
	C286.635651,275.055084 391.302094,275.055847 495.968506,275.055695 
	C497.275879,275.055695 498.583252,275.055695 501.454987,275.055695 
	C491.403229,285.722443 482.244171,295.441895 472.789368,305.301819 
z"/>
<path fill="#141D3C" opacity="1.000000" stroke="none" 
	d="
M160.551834,275.164368 
	C159.319962,275.833282 157.629166,276.906555 155.930603,276.918945 
	C138.787140,277.044556 121.642189,277.039429 104.498222,276.955688 
	C101.571548,276.941376 99.902939,277.333618 99.924706,280.946594 
	C100.062103,303.749481 99.996178,326.553528 100.013268,349.357208 
	C100.013748,349.997589 100.191978,350.637878 100.518997,352.833984 
	C123.469673,329.603088 145.696030,307.105347 168.046448,284.482025 
	C170.313019,286.389740 171.539917,287.422363 173.072021,288.711914 
	C171.074585,291.304657 168.783447,293.545624 167.402466,296.251160 
	C165.551178,299.878113 163.958878,303.764984 163.073837,307.723236 
	C162.093430,312.108002 164.560959,314.532745 169.025177,315.040955 
	C170.015900,315.153748 170.930099,315.938721 171.939758,316.796875 
	C162.824829,318.110535 159.325302,315.035095 161.245773,306.331879 
	C162.347855,301.337372 165.407150,296.757507 167.723801,292.059235 
	C168.383423,290.721466 169.528412,289.622986 169.656021,287.684204 
	C145.170868,310.446320 122.096550,334.571411 97.856010,358.840454 
	C97.856010,330.465118 97.856010,303.106018 97.856010,275.076385 
	C118.666275,275.076385 139.377792,275.076385 160.551834,275.164368 
z"/>
<path fill="#050D33" opacity="1.000000" stroke="none" 
	d="
M423.978027,614.017761 
	C424.123810,599.525452 424.248505,602.045837 411.923218,602.035278 
	C339.596222,601.973389 267.269135,602.012024 194.942093,601.965637 
	C193.054123,601.964417 191.166519,601.379456 189.167221,600.705322 
	C189.260956,600.284607 189.466217,600.225281 190.390564,599.955811 
	C258.976105,599.729614 326.842590,599.718567 394.709015,599.672180 
	C396.645630,599.670837 398.582001,599.293518 400.518463,599.091553 
	C401.538025,599.401489 402.557587,599.711426 403.905243,599.877747 
	C409.460175,599.702942 414.693573,599.512329 419.910095,599.728943 
	C421.689392,599.802856 423.426239,600.899963 425.139069,602.430176 
	C425.207886,606.821777 425.320099,610.312805 425.432312,613.803894 
	C425.432312,613.803894 425.454803,613.950317 425.074432,613.989746 
	C424.455353,614.025391 424.216675,614.021606 423.978027,614.017761 
z"/>
<path fill="#0D214B" opacity="1.000000" stroke="none" 
	d="
M974.748169,411.446838 
	C973.740173,410.541168 972.687317,409.684418 972.664490,408.800964 
	C972.514587,403.011414 972.587280,397.216034 972.587280,391.064636 
	C979.511536,391.064636 986.087952,391.064636 993.140381,391.064636 
	C993.140381,397.587036 993.140381,404.243652 993.140381,411.483398 
	C987.046387,411.483398 981.113037,411.483398 974.748169,411.446838 
z"/>
<path fill="#4D5362" opacity="1.000000" stroke="none" 
	d="
M402.927917,592.515503 
	C402.222717,591.642639 401.077576,590.311584 401.075867,588.979126 
	C400.988708,520.729797 400.992249,452.480377 401.046906,384.230988 
	C401.047974,382.889923 401.771057,381.549408 402.547424,380.110474 
	C402.965515,450.693756 402.993469,521.375244 402.927917,592.515503 
z"/>
<path fill="#141D3C" opacity="1.000000" stroke="none" 
	d="
M402.695007,370.283020 
	C404.025757,370.912140 405.110107,371.842834 406.251099,372.822144 
	C418.900482,359.445679 431.425873,346.242676 443.901245,332.992584 
	C451.950623,324.443329 459.893799,315.793732 467.980652,307.280365 
	C468.908386,306.303711 470.455139,305.915100 472.082947,305.370880 
	C459.211182,319.687866 445.990021,333.905273 432.724884,348.081512 
	C424.101105,357.297638 415.426025,366.465912 406.736694,375.620331 
	C405.738739,376.671692 404.501404,377.495850 403.183838,378.709137 
	C402.811279,376.190155 402.629913,373.387390 402.695007,370.283020 
z"/>
<path fill="#141D3C" opacity="1.000000" stroke="none" 
	d="
M487.813171,565.600098 
	C484.775208,565.121338 483.014160,565.783508 480.789307,568.377747 
	C475.182800,574.915100 468.795013,580.782349 462.166443,586.881836 
	C461.317932,586.712646 461.133087,586.489075 461.058075,586.174744 
	C469.600098,576.921997 478.142120,567.669189 486.684113,558.416443 
	C487.113708,558.513855 487.543274,558.611267 487.972870,558.708679 
	C487.972870,560.866028 487.972870,563.023438 487.813171,565.600098 
z"/>
<path fill="#141D3C" opacity="1.000000" stroke="none" 
	d="
M453.627991,593.963806 
	C453.988922,598.028381 451.297791,599.866760 447.442657,601.028137 
	C449.155212,598.716187 451.232483,596.397034 453.627991,593.963806 
z"/>
<path fill="#141D3C" opacity="1.000000" stroke="none" 
	d="
M423.670776,614.180237 
	C424.216675,614.021606 424.455353,614.025391 425.050903,614.059998 
	C423.446960,616.948547 421.486145,619.806335 419.231628,622.659790 
	C418.909454,622.486328 418.881012,622.317139 418.852570,622.148010 
	C418.881012,621.963745 418.909454,621.779541 419.193878,621.200073 
	C419.645996,620.536560 419.842133,620.268311 420.038269,620.000000 
	C420.345184,619.898560 420.594910,619.718018 421.090363,619.145569 
	C421.633240,618.639832 421.782562,618.392273 421.841248,618.090088 
	C422.348694,616.840942 422.856140,615.591858 423.670776,614.180237 
z"/>
<path fill="#141D3C" opacity="1.000000" stroke="none" 
	d="
M436.635925,611.965088 
	C437.306396,616.287415 433.131622,616.811768 430.463684,618.977234 
	C432.186493,616.706665 434.254730,614.397461 436.635925,611.965088 
z"/>
<path fill="#141D3C" opacity="1.000000" stroke="none" 
	d="
M425.687897,613.493164 
	C425.320099,610.312805 425.207886,606.821777 425.191406,602.813232 
	C425.505920,605.924683 425.724670,609.553528 425.687897,613.493164 
z"/>
<path fill="#141D3C" opacity="1.000000" stroke="none" 
	d="
M175.405731,317.321228 
	C176.158386,313.842499 177.920807,314.477814 179.942688,316.812378 
	C178.601898,317.280060 177.204147,317.370026 175.405731,317.321228 
z"/>
<path fill="#141D3C" opacity="1.000000" stroke="none" 
	d="
M419.657288,629.946411 
	C419.010162,630.916199 418.072052,631.997192 416.766296,633.118103 
	C417.387848,632.124573 418.377106,631.091064 419.657288,629.946411 
z"/>
<path fill="#050D33" opacity="1.000000" stroke="none" 
	d="
M424.242371,625.209900 
	C424.728577,626.782898 426.169281,629.273499 422.166504,628.167603 
	C422.594391,627.024963 423.265259,626.175903 424.242371,625.209900 
z"/>
<path fill="#141D3C" opacity="1.000000" stroke="none" 
	d="
M414.024506,634.021973 
	C413.749542,633.822388 413.474579,633.622803 413.071594,632.985229 
	C412.943573,632.547180 412.881378,632.132080 412.881378,632.132080 
	C412.881378,632.132080 413.267578,632.066223 413.463440,632.067017 
	C414.254944,632.358032 414.850586,632.648193 415.755554,633.060791 
	C416.064911,633.183167 416.015137,633.636780 415.660706,633.840454 
	C414.879028,634.036743 414.451752,634.029358 414.024506,634.021973 
z"/>
<path fill="#050D33" opacity="1.000000" stroke="none" 
	d="
M460.779388,586.287109 
	C461.133087,586.489075 461.317932,586.712646 461.823975,586.922729 
	C461.432739,587.299622 460.830078,587.599182 459.870789,587.888184 
	C459.843018,587.384888 460.171875,586.892151 460.779388,586.287109 
z"/>
<path fill="#050D33" opacity="1.000000" stroke="none" 
	d="
M418.605682,622.358643 
	C418.881012,622.317139 418.909454,622.486328 419.003265,622.904297 
	C418.936676,623.513916 418.804688,623.874756 418.398834,624.369812 
	C418.202881,623.859192 418.280853,623.214233 418.605682,622.358643 
z"/>
<path fill="#FDFDFD" opacity="1.000000" stroke="none" 
	d="
M400.445068,598.730469 
	C398.582001,599.293518 396.645630,599.670837 394.709015,599.672180 
	C326.842590,599.718567 258.976105,599.729614 190.654510,599.774048 
	C190.837555,598.597961 191.216095,597.120728 192.152390,596.229370 
	C209.513458,579.701416 226.910004,563.210327 244.389786,546.808044 
	C246.858017,544.491943 248.125076,542.152771 248.051483,538.615967 
	C247.822952,527.631958 247.495758,516.614136 248.084946,505.656647 
	C249.227280,484.412170 241.852448,465.766907 231.155304,448.200226 
	C226.858429,441.143982 221.180771,434.929657 216.148911,428.318909 
	C215.259583,427.150604 214.455627,425.917267 213.612259,424.713959 
	C213.989014,424.333282 214.365753,423.952576 214.742508,423.571869 
	C216.084213,424.492065 217.577576,425.251770 218.745758,426.355652 
	C264.721985,469.800323 310.677643,513.266846 356.613892,556.753906 
	C371.231567,570.592163 385.787506,584.495728 400.445068,598.730469 
z"/>
<path fill="#FDFEFE" opacity="1.000000" stroke="none" 
	d="
M391.003784,317.180420 
	C392.069336,317.263824 393.134857,317.347229 394.884430,317.437225 
	C396.195007,317.329651 396.821533,317.215485 397.607422,317.274628 
	C397.766785,317.447937 398.074829,317.804016 398.052063,318.191040 
	C398.007751,319.353088 397.986237,320.128082 397.964722,320.903076 
	C382.519409,335.586639 367.402100,350.639404 351.478912,364.784973 
	C344.399292,371.074219 340.904999,377.488617 341.874603,387.054504 
	C342.710663,395.303009 342.438202,403.725189 341.975433,412.032654 
	C340.548859,437.640350 350.937073,458.980286 365.576538,478.825928 
	C368.236450,482.431793 371.513733,485.576630 374.356323,489.056519 
	C375.301453,490.213593 375.778137,491.753265 376.468964,493.118042 
	C376.024384,493.445618 375.579803,493.773163 375.135223,494.100739 
	C373.788422,493.025421 372.352814,492.043640 371.107574,490.861328 
	C316.488037,439.005798 261.884766,387.133148 207.281616,335.260376 
	C202.236832,330.467865 197.205750,325.660950 192.194336,320.279175 
	C193.164490,319.080170 194.108597,318.462708 195.473297,317.713562 
	C258.948364,317.557251 322.002838,317.535553 385.057312,317.494324 
	C387.039520,317.493042 389.021637,317.289642 391.003784,317.180420 
z"/>
<path fill="#4D5362" opacity="1.000000" stroke="none" 
	d="
M189.001831,398.000000 
	C189.001831,372.392120 189.001831,347.284271 189.001831,322.176392 
	C189.230652,322.176727 189.459488,322.177063 189.688309,322.177399 
	C189.688309,393.051819 189.688309,463.926239 189.688309,534.800659 
	C189.459488,534.801819 189.230652,534.802979 189.001831,534.804138 
	C189.001831,489.369415 189.001831,443.934692 189.001831,398.000000 
z"/>
<path fill="#141D3C" opacity="1.000000" stroke="none" 
	d="
M402.704956,326.311829 
	C403.284271,326.543518 403.892487,327.098816 403.889618,327.650970 
	C403.822968,340.579132 403.690216,353.506958 403.264038,366.724670 
	C402.689026,365.268372 402.184357,363.521759 402.188324,361.776245 
	C402.214844,350.062012 402.349518,338.348022 402.704956,326.311829 
z"/>
<path fill="#F0F5F9" opacity="1.000000" stroke="none" 
	d="
M195.052704,317.845215 
	C194.108597,318.462708 193.164490,319.080170 192.027435,319.992004 
	C191.287643,319.515045 190.740829,318.743744 190.265915,317.658264 
	C191.624832,317.363800 192.911835,317.383453 194.613953,317.449158 
	C195.029083,317.495178 195.052704,317.845215 195.052704,317.845215 
z"/>
<path fill="#141D3C" opacity="1.000000" stroke="none" 
	d="
M188.143524,599.589783 
	C184.814285,599.028625 185.710663,597.277100 187.545166,595.224121 
	C187.934586,596.452637 188.029678,597.853027 188.143524,599.589783 
z"/>
<path fill="#F0F5F9" opacity="1.000000" stroke="none" 
	d="
M398.276276,320.798218 
	C397.986237,320.128082 398.007751,319.353088 398.253357,318.029236 
	C398.794830,317.351471 399.112213,317.222534 399.560242,317.197144 
	C399.690918,317.300659 399.968079,317.115417 399.968079,317.115417 
	C400.408661,317.538910 400.849243,317.962402 401.310303,318.696991 
	C400.416443,319.569794 399.502136,320.131561 398.276276,320.798218 
z"/>
<path fill="#141D3C" opacity="1.000000" stroke="none" 
	d="
M187.229889,316.947754 
	C187.263535,316.810516 187.550156,316.735657 187.920135,316.824341 
	C187.829956,316.995270 187.656418,317.002686 187.229889,316.947754 
z"/>
<path fill="#050D33" opacity="1.000000" stroke="none" 
	d="
M414.054626,634.315491 
	C414.451752,634.029358 414.879028,634.036743 415.625427,634.065918 
	C415.634308,634.581726 415.324036,635.075806 415.013733,635.569885 
	C414.704071,635.249573 414.394409,634.929260 414.054626,634.315491 
z"/>
<path fill="#050D33" opacity="1.000000" stroke="none" 
	d="
M458.445068,591.531860 
	C458.409637,591.473145 458.480469,591.590515 458.445068,591.531860 
z"/>
<path fill="#050D33" opacity="1.000000" stroke="none" 
	d="
M446.446228,603.536804 
	C446.409424,603.476501 446.483063,603.597107 446.446228,603.536804 
z"/>
<path fill="#050D33" opacity="1.000000" stroke="none" 
	d="
M421.641724,618.185913 
	C421.782562,618.392273 421.633240,618.639832 421.196930,618.937134 
	C421.059509,618.736816 421.206726,618.483582 421.641724,618.185913 
z"/>
<path fill="#050D33" opacity="1.000000" stroke="none" 
	d="
M419.804443,620.104065 
	C419.842133,620.268311 419.645996,620.536560 419.226685,620.922424 
	C419.192505,620.762695 419.381561,620.485413 419.804443,620.104065 
z"/>
<path fill="#050D33" opacity="1.000000" stroke="none" 
	d="
M412.727356,632.196533 
	C412.881378,632.132080 412.943573,632.547180 412.952332,632.756348 
	C412.831848,632.730713 412.702576,632.495911 412.727356,632.196533 
z"/>
<path fill="#141D3C" opacity="1.000000" stroke="none" 
	d="
M195.473297,317.713562 
	C195.052704,317.845215 195.029083,317.495178 194.981445,317.326355 
	C196.694916,316.442413 198.452820,315.113647 200.217636,315.104431 
	C225.845917,314.969940 251.475159,315.012207 277.104156,315.012207 
	C313.217743,315.012207 349.331360,314.992828 385.444794,315.069550 
	C387.246887,315.073364 389.047241,315.911285 390.926086,316.770630 
	C389.021637,317.289642 387.039520,317.493042 385.057312,317.494324 
	C322.002838,317.535553 258.948364,317.557251 195.473297,317.713562 
z"/>
<path fill="#141D3C" opacity="1.000000" stroke="none" 
	d="
M399.756165,316.820221 
	C399.968079,317.115417 399.690918,317.300659 399.063477,317.203339 
	C398.106689,317.104462 397.777405,317.102875 397.448090,317.101318 
	C396.821533,317.215485 396.195007,317.329651 395.268677,317.309265 
	C396.494019,316.958160 398.019135,316.741608 399.756165,316.820221 
z"/>
<path fill="#E8EBF1" opacity="1.000000" stroke="none" 
	d="
M1361.179810,467.054688 
	C1363.551270,459.244232 1365.814819,451.819397 1368.078369,444.394592 
	C1368.448120,444.346436 1368.817993,444.298309 1369.187744,444.250183 
	C1372.510620,455.024841 1375.833496,465.799500 1379.342163,477.176575 
	C1372.140747,477.176575 1365.396729,477.176575 1358.165283,477.176575 
	C1359.203003,473.700653 1360.137573,470.570496 1361.179810,467.054688 
z"/>
<path fill="#E8EBF1" opacity="1.000000" stroke="none" 
	d="
M1270.456055,477.684998 
	C1264.552124,477.684692 1259.090088,477.684692 1252.766479,477.684692 
	C1256.227661,466.164673 1259.485840,455.320404 1262.743896,444.476105 
	C1263.110352,444.434235 1263.476807,444.392334 1263.843262,444.350464 
	C1264.377441,445.946838 1264.943237,447.533386 1265.440430,449.141205 
	C1267.997559,457.411774 1270.463257,465.711670 1273.128296,473.947174 
	C1273.903320,476.342163 1274.082397,477.885345 1270.456055,477.684998 
z"/>
<path fill="#E8EBF1" opacity="1.000000" stroke="none" 
	d="
M869.405640,475.354492 
	C868.813293,476.372101 868.187622,477.222748 867.348572,477.604614 
	C866.660767,477.917664 865.718994,477.674591 864.889771,477.674713 
	C859.773987,477.675293 854.658142,477.674988 848.607422,477.674988 
	C850.417725,471.639893 852.055481,466.190277 853.686768,460.738770 
	C855.297058,455.357147 856.900818,449.973572 859.704834,444.275391 
	C862.896545,454.511841 866.088318,464.748291 869.405640,475.354492 
z"/>
<path fill="#031846" opacity="1.000000" stroke="none" 
	d="
M397.607422,317.274628 
	C397.777405,317.102875 398.106689,317.104462 398.932800,317.099823 
	C399.112213,317.222534 398.794830,317.351471 398.276123,317.642212 
	C398.074829,317.804016 397.766785,317.447937 397.607422,317.274628 
z"/>
</svg>